<svg xmlns="http://www.w3.org/2000/svg" width="248.265" height="20.071" viewBox="0 0 248.265 20.071"><g transform="translate(-167.2 -37.2)"><path d="M146.291,2.271V-17.8H132.45v3.411h9.556v4.736h-8.964v3.439h8.964V-1.14H132.45V2.271Z" transform="translate(181.617 55)"/><path d="M13.589-8.046a4.909,4.909,0,0,1,2.678,1.734A4.98,4.98,0,0,1,17.225-3.2,4.92,4.92,0,0,1,15.477.847a7.618,7.618,0,0,1-4.933,1.424H2.2V-17.8h8.062a7.455,7.455,0,0,1,4.778,1.367,4.682,4.682,0,0,1,1.705,3.876,4.667,4.667,0,0,1-.832,2.777A4.877,4.877,0,0,1,13.589-8.046ZM4.483-8.892H9.9a5.47,5.47,0,0,0,3.411-.9,3.157,3.157,0,0,0,1.156-2.65q0-3.439-4.567-3.439H4.483ZM10.347.354a5.56,5.56,0,0,0,3.481-.888,3.269,3.269,0,0,0,1.113-2.72q0-3.693-4.595-3.693H4.483v7.3ZM21.4,2.271V-17.8H34.082v1.917H23.68v6.991h9.838v1.945H23.68v7.3h10.4V2.271ZM51.87-17.8h2.2V2.271h-1.8L40.143-13.882V2.271H37.972V-17.8h1.776L51.87-1.647Zm21.029,0h2.2V2.271h-1.8L61.172-13.882V2.271H59V-17.8h1.776L72.9-1.647Zm22.242,0L87.248-5.848V2.271H84.936V-5.876L77.043-17.8h2.706L86.12-7.934,92.491-17.8Zm9.246,20.071V-17.8h13.531v3.467h-9.19v4.651h8.626v3.5h-8.626V2.271Zm33.235,0h-4.651L130.406-4.41a1.947,1.947,0,0,0-.944-1.1,3.617,3.617,0,0,0-1.593-.31h-2.847v8.09H120.68V-17.8h8.936a8.029,8.029,0,0,1,5.3,1.522,5.4,5.4,0,0,1,1.8,4.369,5.645,5.645,0,0,1-1.057,3.439,5.773,5.773,0,0,1-3.03,2.058A3.5,3.5,0,0,1,135.2-3.959ZM128.968-9.174a4.757,4.757,0,0,0,2.763-.634A2.29,2.29,0,0,0,132.6-11.8a2.29,2.29,0,0,0-.874-1.987,4.757,4.757,0,0,0-2.763-.634h-4v5.243Zm11.67,11.445V-17.8h4.4V2.271ZM165.953-17.8H173.7a12.546,12.546,0,0,1,5.666,1.184,8.274,8.274,0,0,1,3.622,3.439,10.912,10.912,0,0,1,1.254,5.384,11.075,11.075,0,0,1-1.24,5.412A8.273,8.273,0,0,1,179.4,1.073a12.489,12.489,0,0,1-5.694,1.2h-7.752Zm7.47,16.519q6.427,0,6.427-6.512,0-6.455-6.427-6.455H170.35V-1.281ZM204.15-17.8h3.467V2.271h-3.89V-8.695L199.1,2.271h-2.847L191.605-8.554V2.271h-3.862V-17.8h3.5L197.722-3ZM227.011,2.271l-1.917-4.454h-9.387L213.79,2.271h-4.426L218.583-17.8h3.552l9.218,20.071Zm-9.838-7.808h6.484l-3.242-7.527ZM246.321-17.8h4.144V2.271h-3.27l-10.007-12.8v12.8h-4.116V-17.8h3.242L246.321-5.03Z" transform="translate(165 55)"/></g></svg>