<svg xmlns="http://www.w3.org/2000/svg" width="200.000000pt" height="200.000000pt" viewBox="0 0 200.000000 200.000000" preserveAspectRatio="xMidYMid meet"><g transform="translate(0.000000,200.000000) scale(0.100000,-0.100000)" fill="#000000" stroke="none"><path d="M895 1966 c-162 -40 -289 -172 -324 -334 -15 -71 -15 -633 0 -704 48 -223 273 -379 494 -341 181 31 314 153 360 330 19 72 22 631 4 715 -51 239 -297 393 -534 334z m251 -100 c77 -35 145 -103 181 -180 l28 -61 0 -345 0 -345 -28 -61 c-36 -77 -104 -145 -182 -181 -51 -24 -73 -28 -145 -28 -72 0 -94 4 -145 28 -78 36 -146 104 -182 181 l-28 61 0 345 0 345 28 60 c86 183 293 263 473 181z"></path><path d="M971 1686 c-8 -9 -11 -48 -9 -111 2 -80 6 -100 21 -109 12 -8 22 -8 35 0 14 9 18 29 20 109 3 101 -4 125 -38 125 -10 0 -23 -6 -29 -14z"></path><path d="M653 408 c-6 -7 -13 -19 -18 -26 -9 -16 340 -372 365 -372 8 0 93 78 188 173 178 178 195 204 151 228 -20 10 -35 -3 -180 -147 l-159 -159 -158 158 c-86 86 -162 157 -168 157 -7 0 -16 -6 -21 -12z"></path></g></svg>